<?xml version="1.0" encoding="UTF-8"?> <svg xmlns="http://www.w3.org/2000/svg" xmlns:xlink="http://www.w3.org/1999/xlink" xmlns:v="https://vecta.io/nano" width="680" height="330"><style><![CDATA[.B{fill:#fff}.C{fill:#06033e}.D{opacity:.4}.E{fill-rule:nonzero}.F{fill:#433bb2}.G{fill:#00bcbc}.H{fill:#f2b800}.I{fill:#00baba}.J{fill:#3b349c}.K{stroke-width:2}.L{stroke:#00bcbc}.M{fill:#00a3ba}]]></style><defs><linearGradient id="A" x1="106.005%" x2="35.49%" y1="49.893%" y2="49.893%"><stop offset="0%" stop-color="#01c8ef"></stop><stop offset="12.97%" stop-color="#04b1dd"></stop><stop offset="54.66%" stop-color="#0e6ba7"></stop><stop offset="84.76%" stop-color="#154085"></stop><stop offset="100%" stop-color="#172f78"></stop></linearGradient><radialGradient id="B" cx="118.548%" cy="-6.692%" r="272.156%" fx="118.548%" fy="-6.692%" gradientTransform="matrix(-.57895 0 0 -1 1.872 -.134)"><stop offset="0%" stop-color="#01c8ef"></stop><stop offset="13.96%" stop-color="#03bae4"></stop><stop offset="40.33%" stop-color="#0895c8"></stop><stop offset="76%" stop-color="#115a9a"></stop><stop offset="100%" stop-color="#172f78"></stop></radialGradient><linearGradient id="C" x1="106.005%" x2="35.49%" y1="49.894%" y2="49.894%"><stop offset="0%" stop-color="#01c8ef"></stop><stop offset="12.97%" stop-color="#04b1dd"></stop><stop offset="54.66%" stop-color="#0e6ba7"></stop><stop offset="84.76%" stop-color="#154085"></stop><stop offset="100%" stop-color="#172f78"></stop></linearGradient><radialGradient id="D" cx="118.548%" cy="-6.69%" r="272.156%" fx="118.548%" fy="-6.69%" gradientTransform="matrix(-.57895 0 0 -1 1.872 -.134)"><stop offset="0%" stop-color="#01c8ef"></stop><stop offset="13.96%" stop-color="#03bae4"></stop><stop offset="40.33%" stop-color="#0895c8"></stop><stop offset="76%" stop-color="#115a9a"></stop><stop offset="100%" stop-color="#172f78"></stop></radialGradient><linearGradient id="E" x1="106.051%" x2="35.536%" y1="49.805%" y2="49.805%"><stop offset="0%" stop-color="#01c8ef"></stop><stop offset="12.97%" stop-color="#04b1dd"></stop><stop offset="54.66%" stop-color="#0e6ba7"></stop><stop offset="84.76%" stop-color="#154085"></stop><stop offset="100%" stop-color="#172f78"></stop></linearGradient><radialGradient id="F" cx="118.594%" cy="-6.584%" r="272.156%" fx="118.594%" fy="-6.584%" gradientTransform="matrix(-.57895 0 0 -1 1.873 -.132)"><stop offset="0%" stop-color="#01c8ef"></stop><stop offset="13.96%" stop-color="#03bae4"></stop><stop offset="40.33%" stop-color="#0895c8"></stop><stop offset="76%" stop-color="#115a9a"></stop><stop offset="100%" stop-color="#172f78"></stop></radialGradient><radialGradient id="G" cx="118.586%" cy="-6.692%" r="272.156%" fx="118.586%" fy="-6.692%" gradientTransform="matrix(-.57895 0 0 -1 1.872 -.134)"><stop offset="0%" stop-color="#01c8ef"></stop><stop offset="13.96%" stop-color="#03bae4"></stop><stop offset="40.33%" stop-color="#0895c8"></stop><stop offset="76%" stop-color="#115a9a"></stop><stop offset="100%" stop-color="#172f78"></stop></radialGradient><radialGradient id="H" cx="118.586%" cy="-6.69%" r="272.156%" fx="118.586%" fy="-6.69%" gradientTransform="matrix(-.57895 0 0 -1 1.872 -.134)"><stop offset="0%" stop-color="#01c8ef"></stop><stop offset="13.96%" stop-color="#03bae4"></stop><stop offset="40.33%" stop-color="#0895c8"></stop><stop offset="76%" stop-color="#115a9a"></stop><stop offset="100%" stop-color="#172f78"></stop></radialGradient><radialGradient id="I" cx="118.503%" cy="-6.584%" r="272.156%" fx="118.503%" fy="-6.584%" gradientTransform="matrix(-.57846 0 0 -1 1.87 -.132)"><stop offset="0%" stop-color="#01c8ef"></stop><stop offset="13.96%" stop-color="#03bae4"></stop><stop offset="40.33%" stop-color="#0895c8"></stop><stop offset="76%" stop-color="#115a9a"></stop><stop offset="100%" stop-color="#172f78"></stop></radialGradient><path id="J" d="M0 43.275h0v-17.6l22.3 3 16.7-9.6c2.9-1.7 7.7-1.7 10.6 0l2.6 1.7 36.2 4.8v17.8.1h0c0 1.1-.8 2.1-2.2 3l-36.8 21.2c-2.9 1.7-7.7 1.7-10.6 0l-36.6-21.3c-1.4-.8-2.1-1.9-2.2-3h0v-.1h0z"></path><path id="K" d="M2.2 22.475L39 1.275c2.9-1.7 7.7-1.7 10.6 0l36.6 21.3c2.9 1.7 2.9 4.4 0 6.1l-36.8 21.2c-2.9 1.7-7.7 1.7-10.6 0l-36.6-21.3c-2.9-1.7-2.9-4.4 0-6.1z"></path><path id="L" d="M2.2 27.475l36.6 21.3c2.9 1.7 7.7 1.7 10.6 0l36.8-21.2c1.2-.7 1.9-1.6 2.1-2.5.3 1.3-.4 2.6-2.1 3.6l-36.8 21.2c-2.9 1.7-7.7 1.7-10.6 0l-36.6-21.3c-1.7-1-2.4-2.3-2.1-3.6.2.9.9 1.8 2.1 2.5z"></path><path id="M" d="M14.9 43.575l1.7 1.1v-2.1l-1.7-1z"></path><path id="N" d="M46.3 73.975l24.8-14.3c1-.6.9-1.6-.3-2.3l-24.2-14c-1.2-.7-2.9-.7-3.9-.2l-24.8 14.3c-1 .6-.9 1.6.3 2.3l24.2 14c1.1.7 2.9.8 3.9.2z"></path><path id="O" d="M0 43.275h0v-17.6l22.3 3 16.7-9.6c2.9-1.7 7.7-1.7 10.6 0l2.6 1.7 36.2 4.8v17.8.1h0c0 1.1-.8 2.1-2.2 3l-36.8 21.2c-2.9 1.7-7.7 1.7-10.6 0l-36.6-21.3c-1.4-.8-2.1-1.9-2.2-3h0v-.1z"></path><path id="P" d="M19.7 23.775l21.4-12.4c1.7-1 4.5-1 6.2 0l21.3 12.4c1.7 1 1.7 2.6 0 3.6l-21.4 12.4c-1.7 1-4.5 1-6.2 0l-21.3-12.4c-1.7-1-1.7-2.6 0-3.6z"></path><path id="Q" d="M46.3 40.975l24.8-14.3c1-.6.9-1.6-.3-2.3l-24.2-14c-1.2-.7-2.9-.7-3.9-.2l-24.8 14.4c-1 .6-.9 1.6.3 2.3l24.2 14c1.2.6 2.9.7 3.9.1z"></path><path id="R" d="M56.1 56.375l20.4-11.8c.5-.3.9-1 .9-1.7v-1.5c0-.7-.4-.9-.9-.7l-20.4 11.9c-.5.3-.9 1-.9 1.7v1.5c0 .6.4.9.9.6z"></path><path id="S" d="M168 233.556l36.8-21.2c2.9-1.7 7.7-1.7 10.6 0l36.6 21.3c2.9 1.7 2.9 4.4 0 6.1l-36.8 21.2c-2.9 1.7-7.7 1.7-10.6 0l-36.6-21.3c-2.9-1.7-2.9-4.4 0-6.1z"></path><path id="T" d="M221.9 267.456l20.4-11.8c.5-.3.9-1 .9-1.7v-1.5c0-.7-.4-.9-.9-.7l-20.4 11.8c-.5.3-.9 1-.9 1.7v1.5c0 .7.4 1 .9.7z"></path><path id="U" d="M168.1 172.356l36.6 21.3c2.9 1.7 7.7 1.7 10.6 0l36.8-21.2c1.2-.7 1.9-1.6 2.1-2.5.3 1.3-.4 2.6-2.1 3.6l-36.8 21.2c-2.9 1.7-7.7 1.7-10.6 0l-36.6-21.3c-1.7-1-2.4-2.3-2.1-3.6.1.9.8 1.8 2.1 2.5z"></path></defs><g fill="none" fill-rule="evenodd"><path fill="#e2f8f8" d="M0 0h680v330H0z" class="E"></path><g transform="translate(168.4 24.444)"><path d="M359 141.556l-48.4-27.4c-5.2-3-13.6-3-18.8 0l-73.8 43.4" class="K L"></path><ellipse cx="86.955" cy="5.627" rx="5.6" ry="9.7" transform="matrix(.002827 -.999996 .999996 .002827 299.082163 198.846742)" class="E G"></ellipse><path stroke="#00baba" d="M64.2 221.656l83 47.9c6 3.5 13.3 3.5 19.3.1l25.6-14.5" class="K"></path><ellipse cx="54.728" cy="183.496" rx="5.6" ry="9.7" transform="matrix(.002827 -.999996 .999996 .002827 -64.722006 306.910959)" class="E G"></ellipse><path d="M209 98.756l-48.4-27.3c-5.2-3-13.6-3-18.8 0l-73.7 43.4" class="K L"></path><g class="E"><ellipse cx="46.595" cy="18.487" rx="5.6" ry="9.7" transform="matrix(.002827 -.999996 .999996 .002827 96.07633 134.235543)" class="G"></ellipse><path fill="#f0f4ff" d="M267.6 86.856v65.7l-75.8-43.8v-65.7z"></path><g fill="#98a1ac"><path d="M267.6 152.556l4.3-2.1v-65.7l-4.3 2.1z"></path><path d="M271.9 84.756l-75.9-43.8-4.2 2.1 75.8 43.8z"></path></g><path fill="#dae0e3" d="M263.8 90.256v56.8l-68.2-39.4v-56.8z"></path><path fill="#98a1ac" d="M202.5 63.356v10.4l54.4 31.4v-10.4z"></path><path d="M201.7 81.656l5.5 3.2 1.4 2.3 6.9 4v11.1l-13.8-7.9z" class="H"></path><path fill="#012d3f" d="M207.9 86.056l7.6 4.3v.8l-6.9-4z"></path><path d="M236.9 104.256v5.1c0 1 .5 1.9 1.4 2.4l15.5 8.9c.8.4 1.7-.1 1.7-1v-5.1c0-.9-.5-1.8-1.3-2.2l-15.7-9c-.7-.5-1.6.1-1.6.9z" class="I"></path><path fill="#f0f4ff" d="M248.4 113.456c-.1.1-.1.3-.1.4s.1.3.1.4.1.1.1.2c.3.3.7.3.8.1.2-.2.1-.7-.2-1-.2-.3-.6-.4-.7-.1zm2.3 1.2c-.1.1-.1.3-.1.4s.1.3.1.4.1.1.1.2c.3.3.7.3.8.1.2-.2.1-.7-.2-1-.2-.4-.6-.4-.7-.1zm2.2 1.4c-.1.1-.1.3-.1.4s.1.3.1.4.1.1.1.2c.3.3.7.3.8.1.2-.2.1-.7-.2-1-.1-.3-.5-.4-.7-.1zm-13.8-8.3v.8c0 .2.1.3.2.4l2.4 1.4c.1.1.3 0 .3-.2v-.8a.76.76 0 0 0-.2-.4l-2.5-1.4s-.2 0-.2.2z"></path><path fill="#012d3f" d="M224.2 98.756v1.9l3.3 1.9v2l1.7-2-1.7-3.8v1.9z"></path><g transform="translate(0 102.981)"><g transform="translate(0 33.2)"><g transform="translate(0 33.1)"><use xlink:href="#J" fill="url(#A)"></use><use xlink:href="#K" fill="url(#B)"></use><g class="B"><use xlink:href="#L"></use><path d="M33.8 54.575l1.8 1v-2l-1.8-1zm-3.6-2.1l1.7 1v-2l-1.7-1zm-3.6-2.1l1.7 1v-2l-1.7-1zm2.9 5.8l1.8 1v-2l-1.8-1zm-3.2-1.9l1.8 1v-2l-1.8-1z"></path><use xlink:href="#M"></use><path d="M4.8 37.875l1.8 1v-2.1l-1.8-1zm18.1 10.4l1.8 1v-2l-1.8-1z"></path></g></g><use xlink:href="#N" class="C D"></use><path d="M56 89.475l20.4-11.8c.5-.3.9-1 .9-1.7v-1.5c0-.7-.4-.9-.9-.7L56 85.575c-.5.3-.9 1-.9 1.7v1.5c0 .7.4 1 .9.7z" class="B"></path><use xlink:href="#O" fill="url(#C)"></use><use xlink:href="#K" fill="url(#D)"></use><use xlink:href="#P" class="C D"></use><g class="B"><use xlink:href="#L"></use><path d="M33.8 54.575l1.8 1v-2l-1.8-1zm-3.6-2.1l1.7 1v-2l-1.7-1zm-3.6-2.1l1.7 1v-2l-1.7-1zm2.9 5.8l1.8 1v-2l-1.8-1zm-3.2-1.9l1.8 1v-2l-1.8-1z"></path><use xlink:href="#M"></use><path d="M4.8 37.875l1.8 1v-2.1l-1.8-1zm18.1 10.4l1.8 1v-2l-1.8-1z"></path></g></g><use xlink:href="#J" y="0.1" fill="url(#E)"></use><path fill="url(#F)" d="M2.2 22.475L39 1.275c2.9-1.7 7.7-1.7 10.6 0l36.6 21.3c2.9 1.7 2.9 4.4 0 6.1l-36.8 21.2c-2.9 1.7-7.7 1.7-10.6 0l-36.6-21.3c-2.9-1.6-2.9-4.4 0-6.1z"></path><g class="B"><use xlink:href="#L" y="0.1"></use><path d="M33.9 54.675l1.7 1v-2l-1.7-1.1zm-3.7-2.1l1.8 1v-2l-1.8-1.1zm-3.6-2.1l1.7 1v-2.1l-1.7-1z"></path><use xlink:href="#M" x="14.7" y="12.6"></use><path d="M26.4 54.375l1.7 1v-2l-1.7-1zm-11.5-10.7l1.8 1v-2l-1.8-1zm-10-5.8l1.7 1v-2l-1.7-1z"></path><use xlink:href="#M" x="8.1" y="4.7"></use></g><use xlink:href="#Q" class="C D"></use><use xlink:href="#R" class="B"></use></g><use xlink:href="#O" x="165.8" y="211.081" class="I"></use><use xlink:href="#S" class="M"></use><g class="B"><use xlink:href="#L" x="165.8" y="211.181"></use><path d="M199.7 265.656l1.7 1v-2l-1.7-1zm-3.7-2.1l1.8 1v-2l-1.8-1zm-3.6-2.1l1.7 1v-2l-1.7-1zm3 5.8l1.7 1v-2l-1.7-1zm-3.2-1.8l1.7 1v-2l-1.7-1.1zm-11.5-10.7l1.8 1v-2l-1.8-1zm-10-5.8l1.7 1v-2l-1.7-1zm18.1 10.4l1.7 1v-2l-1.7-1z"></path></g><use xlink:href="#Q" x="165.8" y="210.981" class="C D"></use><use xlink:href="#T" class="B"></use><use xlink:href="#O" x="165.8" y="177.981" class="I"></use><use xlink:href="#S" y="-33.1" class="M"></use><use xlink:href="#P" x="165.9" y="177.981" class="C D"></use><path d="M168 205.556l36.6 21.3c2.9 1.7 7.7 1.7 10.6 0l36.8-21.2c1.2-.7 1.9-1.6 2.1-2.5.3 1.3-.4 2.6-2.1 3.6l-36.8 21.2c-2.9 1.7-7.7 1.7-10.6 0l-36.6-21.4c-1.7-1-2.4-2.3-2.1-3.6.2 1 .9 1.9 2.1 2.6zm31.7 27l1.7 1v-2l-1.7-1zm-3.7-2.1l1.8 1v-2l-1.8-1zm-3.6-2.1l1.7 1v-2l-1.7-1zm3 5.8l1.7 1v-2l-1.7-1zm-3.2-1.8l1.7 1v-2l-1.7-1.1zm-11.5-10.7l1.8 1v-2l-1.8-1zm-10-5.8l1.7 1v-2l-1.7-1zm18.1 10.4l1.7 1v-2l-1.7-1z" class="B"></path><use xlink:href="#O" x="165.9" y="144.881" class="I"></use><path d="M168.1 167.356l36.8-21.2c2.9-1.7 7.7-1.7 10.6 0l36.6 21.3c2.9 1.7 2.9 4.4 0 6.1l-36.8 21.2c-2.9 1.7-7.7 1.7-10.6 0l-36.6-21.3c-3-1.7-3-4.4 0-6.1z" class="M"></path><g class="B"><use xlink:href="#U"></use><path d="M199.7 199.456l1.8 1v-2l-1.8-1zm-3.6-2.1l1.7 1v-2l-1.7-1zm-3.7-2.1l1.8 1v-2l-1.8-1zm3 5.8l1.8 1v-2l-1.8-1zm-3.2-1.9l1.8 1v-2l-1.8-1zm-11.4-10.7l1.7 1v-2l-1.7-1zm-10.1-5.8l1.8 1v-2l-1.8-1zm18.1 10.5l1.7 1v-2l-1.7-1z"></path></g><use xlink:href="#N" x="165.9" y="111.781" class="C D"></use><path d="M221.9 201.256l20.4-11.8c.5-.3.9-1 .9-1.7v-1.5c0-.7-.4-.9-.9-.7l-20.4 11.8c-.5.3-.9 1-.9 1.7v1.5c0 .7.4.9.9.7z" class="B"></path><g class="I"><path d="M65.4 72.856c.2.6.4 1.2.7 1.7 0 0 0 .1.1.1.5.8 1 1.5 1.7 2h0l.5.3c2.1 1.3 4.8 1.2 7.6-.3l.6-.3 23.4-13.5 3.2-1.8h0l26.2-15.2 1.5-.9 13.7-7.9h.1c1.3-.7 2.6-1.7 3.8-3 .9-.9 1.6-1.9 2.3-3 1.4-2.3 2.3-4.8 2.8-7.2.5-3 .2-5.8-1-7.9-.6-1-1.3-1.8-2.2-2.4h0c-.7-.5-1.5-.7-2.4-.8-1.1-.1-2.3 0-3.5.4-.2.1-.3.1-.5.2-1.3.5-2.7 1.4-4 2.6-1.1-1.6-2.6-2.6-4.3-3.1-3.9-1.1-8.8.6-13.1 5.1-.4-2.1-1-4-1.9-5.8-.2-.3-.3-.6-.5-.9-1.4-2.6-3.3-4.5-5.5-5.8h0c-.5-.3-1-.6-1.6-.8-1.2-.5-2.5-.9-3.9-1.1-6.8-.9-14.9 2.6-22 10.2-10.4 11.2-15 27.7-11.7 39.2-1.7.7-3.5 1.9-5.1 3.7-.3.3-.6.6-.8 1-4 4.5-5.5 10.7-4.2 15.2z"></path><path d="M120.4 12.156c.9 1.8 1.5 3.7 1.9 5.8 4.3-4.4 9.2-6.2 13.1-5.1l-.4-.3c-3.2-4.4-9.1-4.5-14.6-.4z"></path><path d="M135 12.556l.4.3c1.7.5 3.2 1.5 4.3 3.1 1.3-1.2 2.6-2.1 4-2.6.2-.1.3-.1.5-.2 1.2-.4 2.4-.6 3.5-.4.9.1 1.7.4 2.4.8l-4.1-2.9-.5-.4c-1.9-1.2-4.3-1.2-6.7-.2-1.3.6-2.6 1.4-3.8 2.5zm-64.4 37l4.7 3.3c-3.3-11.5 1.3-28 11.7-39.2 7.1-7.7 15.2-11.1 22-10.2 1.4.2 2.7.5 3.9 1.1a11.94 11.94 0 0 1 1.6.8l-3.4-2.5-.4-.3c-7.4-5.2-18.8-2.4-28.2 7.8-10.6 11.2-15.2 27.7-11.9 39.2zm-9.2 21.8c.5 1 1.2 1.7 2 2.3h0l4.3 3.1c-.6-.5-1.2-1.2-1.7-2 0 0 0-.1-.1-.1-.3-.5-.5-1.1-.7-1.7-1.3-4.5.3-10.7 4-15.3.3-.3.5-.7.8-1 1.6-1.8 3.4-3 5.1-3.7l-4.5-3.4c-1.7.7-3.5 1.9-5.1 3.7-.3.3-.6.6-.8 1-4.3 5.2-5.7 12.7-3.3 17.1z"></path></g></g><path d="M224.3 256.056l21.9 12.7c5.2 3 13.6 3 18.8 0l73.7-43.4" class="K L"></path><g class="E"><path d="M308.7 242.456c3.8 2.2 3.8 5.8 0 8s-10 2.2-13.8 0-3.8-5.8 0-8 10-2.2 13.8 0z" class="G"></path><g transform="translate(316.5 102.981)"><g transform="translate(0 33.2)"><g transform="translate(0 33.1)"><use xlink:href="#J" class="H"></use><use xlink:href="#K" fill="url(#G)"></use><g class="B"><use xlink:href="#L"></use><path d="M33.9 54.575l1.7 1v-2l-1.7-1zm-3.7-2.1l1.8 1v-2l-1.8-1zm-3.6-2.1l1.7 1v-2l-1.7-1zm3 5.8l1.7 1v-2l-1.7-1zm-3.2-1.9l1.7 1v-2l-1.7-1z"></path><use xlink:href="#M"></use><path d="M4.9 37.875l1.7 1v-2.1l-1.7-1zm18 10.4l1.8 1v-2l-1.8-1z"></path></g></g><use xlink:href="#N" class="C D"></use><use xlink:href="#T" x="-165.8" y="-177.981" class="B"></use><use xlink:href="#J" class="H"></use><use xlink:href="#K" fill="url(#H)"></use><path d="M19.8 23.775l21.4-12.4c1.7-1 4.5-1 6.2 0l21.3 12.4c1.7 1 1.7 2.6 0 3.6l-21.4 12.4c-1.7 1-4.5 1-6.2 0l-21.3-12.4c-1.8-1-1.8-2.6 0-3.6z" class="C D"></path><g class="B"><use xlink:href="#L"></use><path d="M33.9 54.575l1.7 1v-2l-1.7-1zm-3.7-2.1l1.8 1v-2l-1.8-1zm-3.6-2.1l1.7 1v-2l-1.7-1zm3 5.8l1.7 1v-2l-1.7-1zm-3.2-1.9l1.7 1v-2l-1.7-1z"></path><use xlink:href="#M"></use><path d="M4.9 37.875l1.7 1v-2.1l-1.7-1zm18 10.4l1.8 1v-2l-1.8-1z"></path></g></g><g transform="translate(.05)"><use xlink:href="#J" x="0.05" y="0.1" class="H"></use><path fill="url(#I)" d="M2.25 22.475l36.8-21.2c2.9-1.7 7.7-1.7 10.6 0l36.6 21.3c2.9 1.7 2.9 4.4 0 6.1l-36.8 21.2c-2.9 1.7-7.7 1.7-10.6 0l-36.6-21.3c-3-1.6-3-4.4 0-6.1z"></path><g class="B"><use xlink:href="#U" x="-165.85" y="-144.781"></use><path d="M33.85 54.675l1.8 1v-2l-1.8-1.1zm-3.6-2.1l1.7 1v-2l-1.7-1.1zm-3.7-2.1l1.8 1v-2.1l-1.8-1zm3 5.7l1.8 1.1v-2.1l-1.8-1zm-3.2-1.8l1.7 1v-2l-1.7-1zm-11.5-10.7l1.8 1v-2l-1.8-1zm-10-5.8l1.7 1v-2l-1.7-1z"></path><use xlink:href="#M" x="8.05" y="4.7"></use></g><path d="M46.35 40.975l24.8-14.3c1-.6.9-1.6-.3-2.3l-24.2-14c-1.2-.7-2.9-.7-3.9-.2l-24.8 14.4c-1 .6-.9 1.6.3 2.3l24.2 14c1.1.6 2.8.7 3.9.1z" class="C D"></path><use xlink:href="#R" x="-0.05" class="B"></use></g></g><path d="M40.9 118.756l7.4 4.3-.8 1.9 10.2 5.9-11.6 6.7-18.9-10.8zm318.2 0l7.4 4.3-.7 1.9 10.2 5.9-11.7 6.7-18.8-10.8zm-151.8 41.7l7.4 4.3-.7 1.9 10.1 5.9-11.6 6.8-18.8-10.9z" class="B"></path></g></g><g class="E"><path d="M125.2 270.2c12.5 7.2 12.5 18.9.1 26.1s-32.6 7.2-45 0-12.5-18.9-.1-26.1c12.3-7.2 32.5-7.2 45 0zm-43.5 25.3c11.7 6.7 30.6 6.7 42.2 0s11.5-17.7-.1-24.4-30.6-6.7-42.2 0-11.6 17.6.1 24.4" class="G"></path><g fill="#fdd0a7"><path d="M92.9 165.7l3-8.5h9l-2 7.2z"></path><circle cx="8.301" cy="8.583" r="6.9" transform="matrix(.229812 -.973235 .973235 .229812 88.609284 158.612375)"></circle><path d="M105.2 149.4c1.6 3.2 1.9 8.4.2 10.7-1.6 2.2-3.8-.2-4.3-1.4 0 0-1.5-1.4-1.3-2.4.3-1.2 1.9-1.1 2.1.3"></path></g><path fill="#633e00" d="M101.1 155.5c.7.4 1 1.5 1.9 1.3.7-.1.9-.9.7-1.5-.1-.6-.3-1.4 0-1.7.3-.4 1.3-1.1.7-2-.7-.9.7-1.9.9-3 .4-2-2.2-5.5-7-4.5-5.9 1.1-5.6 5.2-5.6 5.2s-1.2.5-1.8 2.3c-.5 1.6 0 3.4 2 5.3s1.5 2.5 1.1 3-.1 1 1.4 1.1 4.8 0 4.9-2.9c0 0-.5-.6-.7-1.4-.1-.8.7-1.6 1.5-1.2z"></path><path d="M92.6 163.7c.1-.1 1.8-.8 5.7-.8 1.6 0 3.3.1 5.1.4l.6 1.2.1.1-12.6 1.6 1.1-2.5z" class="F"></path><path fill="#f4b7bc" stroke="#f4b7bc" stroke-linejoin="round" stroke-width=".183" d="M113.301 160c-.6-.5-1.3-.7-2.1-.7h-1l-2.2-.6a.96.96 0 0 0-.9.2l-2.3 2.1c-.1.1 0 .4.2.4.5.2 1 0 1.5-.3l.1-.1.9 1.1c.6.7 1 1.5 1.3 2.3 1.2 3.5 3.5 3.1 4.8 4l2.9-6.1-3.2-2.3zm-5.5.6l.9.3.1.6-1-.9z"></path><path d="M89.601 210.1c-7.5-3.6-14.6-15.3-15.1-19-.5-3.4 6.4-22.4 15.2-24.7h.1l-1.7 19.6c-3.5 3.6-4 5.7-4 5.7-.2 3.1 7.9 11.5 8 11.6l-2.5 6.8h0z" class="F"></path><path d="M88.101 186l1.4-12c-4.9.9-6.2 4.7-5.2 7.9l2.1 6.2c.3-.7.9-1.3 1.7-2.1z" class="J"></path><path d="M89.901 221.1h0c-1.7-4-1.1-6.9-.4-10.4.8-4.1 1.7-8.7-.7-16.2-2.5-7.9-4-14.4-4.9-18.5-.9-4.2 1.7-8.4 5.8-9.6 3.2-.9 8.2-2 13.4-2 2.8 0 5.3.3 7.7.9 3 .8 5.3 3.2 5.9 6.3.2.8.4 1.7.6 2.7 1.9 8 5.3 23 4 46.8v.1h-31.4v-.1z" class="F"></path><path d="M109.701 181.4c3.6 3.9 10.8 11.3 10.8 11.3s-.5-6.5-2.1-12.3l-8.7 1z" class="J"></path><path d="M113.501 168.5c-.2-4.1 2.8-6.2 2.9-6.2h.1.1c.6.5 15.2 11.4 13.1 19.1v.1l-16.2-13z" class="F"></path><path d="M113.501 168.4l5.1 4.2 5-.2c-3.1-3.1-7.6-6.3-9.4-7.5-.4 1-.7 2.1-.7 3.5z" class="J"></path><path d="M122.001 184.9c-4.4 0-9.5-1.4-12.3-3.4-3.6-2.5-4.9-9.3-3.6-13.3.6-2 1.8-3.1 3.3-3.1h.4c5.2.6 15.1 7 18.5 12.1 1.1 1.7 1.6 3.1 1.2 4.3-.6 2.1-3.3 3.4-7.5 3.4zM90.6 280c-1 0-1.9-.2-2.5-.6-2.1-18.4-.1-25.8 1.1-30.3.3-1 .5-1.8.6-2.6.8-4.7 1.2-23.1 1.2-23.2-.5-.7-.9-1.5-1.2-2.3l-.1-.1H104v6.8l-8 51.1c-2.2.8-4 1.2-5.4 1.2z" class="F"></path><path d="M100.7 222.8l-.5 28.8 3.7-23.9v-4.9z" class="J"></path><path d="M106.9 281.1c-1.8 0-3.3-.6-4.1-1.6.1-8.2.7-23 3.9-30.7 2.5-6.2-3.8-23.5-3.8-23.7-.1 0-2.6-1-4.5-3.9l-.1-.1H119v.1c-1 17.6-3.4 37.3-7.3 58.5-1.1.8-3 1.4-4.8 1.4z" class="F"></path><path d="M118.9 221h-29c.1.3.3.7.5 1.1h28.5V221z" class="J"></path><path d="M117.6 283.1c-.3-.5-.8-.9-1.3-1.2l-4.6-2.5c-2.2 1.9-7 2.2-8.7-.1v3.6c0 1 .8 1.8 1.9 1.8h12.8c.5 0 .7-.5.5-.9l-.6-.7zm-29.5-3.8l.6 4.7c.1.5.4.8.9.8h7.6c.6 0 1.1-.6.9-1.2-.6-1.9-2.2-4.9-2.2-4.9-2.4 1-5.9 1.8-7.8.6z" class="H"></path></g></g></svg> 